<svg fill="none" xmlns="http://www.w3.org/2000/svg" viewBox="0 0 36 36" style="height: 36px; width: 36px; margin: 0px;">
    <rect width="36" height="36" rx="8" fill="#F7F7F9"></rect>
    <path fill-rule="evenodd" clip-rule="evenodd" d="M9.997 9.99683H20.0012C20.5537 9.99683 21.0016 10.4447 21.0016 10.9972V26.0035H9.997C9.44448 26.0035 8.99658 25.5556 8.99658 25.0031V10.9972C8.99658 10.4447 9.44448 9.99683 9.997 9.99683Z" stroke="#F89F29" stroke-width="1.5" stroke-linecap="round" stroke-linejoin="round"></path>
    <path fill-rule="evenodd" clip-rule="evenodd" d="M21.0015 13.9985H26.0035C26.5561 13.9985 27.004 14.4464 27.004 14.999V25.0031C27.004 25.5556 26.5561 26.0035 26.0035 26.0035H21.0015V13.9985Z" stroke="#F89F29" stroke-width="1.5" stroke-linecap="round" stroke-linejoin="round"></path>
    <path d="M12.9983 13.8734C12.9292 13.8734 12.8732 13.9294 12.8732 13.9985C12.8732 14.0676 12.9292 14.1236 12.9983 14.1236C13.0673 14.1236 13.1233 14.0676 13.1233 13.9985C13.1233 13.9294 13.0673 13.8734 12.9983 13.8734" stroke="#F89F29" stroke-width="1.5" stroke-linecap="round" stroke-linejoin="round"></path>
    <path d="M16.9997 13.8734C16.9307 13.8734 16.8747 13.9294 16.8747 13.9985C16.8747 14.0676 16.9307 14.1236 16.9997 14.1236C17.0688 14.1236 17.1248 14.0676 17.1248 13.9985C17.1248 13.9294 17.0688 13.8734 16.9997 13.8734" stroke="#F89F29" stroke-width="1.5" stroke-linecap="round" stroke-linejoin="round"></path>
    <path d="M12.9983 17.8752C12.9292 17.8752 12.8732 17.9311 12.8732 18.0002C12.8732 18.0693 12.9292 18.1253 12.9983 18.1253C13.0673 18.1253 13.1233 18.0693 13.1233 18.0002C13.1233 17.9311 13.0673 17.8752 12.9983 17.8752" stroke="#F89F29" stroke-width="1.5" stroke-linecap="round" stroke-linejoin="round"></path>
    <path d="M16.9997 17.8752C16.9307 17.8752 16.8747 17.9311 16.8747 18.0002C16.8747 18.0693 16.9307 18.1253 16.9997 18.1253C17.0688 18.1253 17.1248 18.0693 17.1248 18.0002C17.1248 17.9311 17.0688 17.8752 16.9997 17.8752" stroke="#F89F29" stroke-width="1.5" stroke-linecap="round" stroke-linejoin="round"></path>
    <path d="M12.9983 21.8766C12.9292 21.8766 12.8732 21.9326 12.8732 22.0017C12.8732 22.0707 12.9292 22.1267 12.9983 22.1267C13.0673 22.1267 13.1233 22.0707 13.1233 22.0017C13.1233 21.9326 13.0673 21.8766 12.9983 21.8766" stroke="#F89F29" stroke-width="1.5" stroke-linecap="round" stroke-linejoin="round"></path>
    <path d="M16.9997 21.8766C16.9307 21.8766 16.8747 21.9326 16.8747 22.0017C16.8747 22.0707 16.9307 22.1267 16.9997 22.1267C17.0688 22.1267 17.1248 22.0707 17.1248 22.0017C17.1248 21.9326 17.0688 21.8766 16.9997 21.8766" stroke="#F89F29" stroke-width="1.5" stroke-linecap="round" stroke-linejoin="round"></path>
    <path d="M24.0026 17.8752C23.9336 17.8752 23.8776 17.9311 23.8776 18.0002C23.8776 18.0693 23.9336 18.1253 24.0026 18.1253C24.0717 18.1253 24.1277 18.0693 24.1277 18.0002C24.1277 17.9311 24.0717 17.8752 24.0026 17.8752" stroke="#F89F29" stroke-width="1.5" stroke-linecap="round" stroke-linejoin="round"></path>
    <path d="M24.0026 21.8766C23.9336 21.8766 23.8776 21.9326 23.8776 22.0017C23.8776 22.0707 23.9336 22.1267 24.0026 22.1267C24.0717 22.1267 24.1277 22.0707 24.1277 22.0017C24.1277 21.9326 24.0717 21.8766 24.0026 21.8766" stroke="#F89F29" stroke-width="1.5" stroke-linecap="round" stroke-linejoin="round"></path>
</svg>