<svg fill="none" xmlns="http://www.w3.org/2000/svg" viewBox="0 0 36 36" style="height: 36px; width: 36px; margin: 0px;">
    <rect width="36" height="36" rx="8" fill="#F7F7F9"></rect>
    <path d="M24 22.9901C23.997 22.9901 23.995 22.9921 23.995 22.9951C23.995 22.9981 23.997 23.0001 24 23.0001C24.003 23.0001 24.005 22.9981 24.005 22.9951C24.005 22.9921 24.003 22.9901 24 22.9901" stroke="#407F46" stroke-width="1.5" stroke-linecap="round" stroke-linejoin="round"></path>
    <path fill-rule="evenodd" clip-rule="evenodd" d="M23.0781 12.689C22.5161 12.689 21.9861 12.805 21.5231 13.036C21.1761 10.753 19.1911 9 16.8091 9C14.2121 9 12.0951 11.084 12.0291 13.665C10.4741 13.863 9.26709 15.187 9.26709 16.824C9.26609 18.577 10.6891 20 12.4421 20H23.0781C25.0961 20 26.7341 18.362 26.7341 16.344C26.7341 14.326 25.0961 12.689 23.0781 12.689V12.689Z" stroke="#407F46" stroke-width="1.5" stroke-linecap="round" stroke-linejoin="round"></path>
    <path d="M18 22.995C17.997 22.995 17.995 22.997 17.995 23C17.995 23.003 17.997 23.005 18 23.005C18.003 23.005 18.005 23.003 18.005 23C18.005 22.997 18.003 22.995 18 22.995" stroke="#407F46" stroke-width="1.5" stroke-linecap="round" stroke-linejoin="round"></path>
    <path d="M12 22.9901C11.997 22.9901 11.995 22.9921 11.995 22.9951C11.995 22.9981 11.997 23.0001 12 23.0001C12.003 23.0001 12.005 22.9981 12.005 22.9951C12.005 22.9921 12.003 22.9901 12 22.9901" stroke="#407F46" stroke-width="1.5" stroke-linecap="round" stroke-linejoin="round"></path>
    <path d="M15 25.9999C14.997 25.9999 14.995 26.0019 14.995 26.0049C14.995 26.0079 14.997 26.0099 15 26.0099C15.003 26.0099 15.005 26.0079 15.005 26.0049C15.005 26.0019 15.003 25.9999 15 25.9999" stroke="#407F46" stroke-width="1.5" stroke-linecap="round" stroke-linejoin="round"></path>
    <path d="M20.9951 25.995C20.9921 25.995 20.9901 25.997 20.9901 26C20.9901 26.003 20.9921 26.005 20.9951 26.005C20.9981 26.005 21.0001 26.003 21.0001 26C21.0001 25.997 20.9981 25.995 20.9951 25.995" stroke="#407F46" stroke-width="1.5" stroke-linecap="round" stroke-linejoin="round"></path>
</svg>