<svg fill="none" xmlns="http://www.w3.org/2000/svg" viewBox="0 0 36 36" style="height: 36px; width: 36px; margin: 0px;">
    <rect width="36" height="36" rx="8" fill="#F7F7F9"></rect>
    <path fill-rule="evenodd" clip-rule="evenodd" d="M10.8545 8.99634H12.9982C17.9709 8.99634 22.002 13.0275 22.002 18.0001V21.3435C22.002 21.707 21.7073 22.0018 21.3437 22.0018H18.0003C13.0277 22.0018 8.99658 17.9706 8.99658 12.998V10.8543C8.99658 10.3615 9.19233 9.88893 9.54075 9.54051C9.88918 9.19208 10.3617 8.99634 10.8545 8.99634Z" stroke="#1F97D4" stroke-width="1.5" stroke-linecap="round" stroke-linejoin="round"></path>
    <path d="M12.1391 12.132C12.1062 12.1321 12.0797 12.1589 12.0798 12.1918C12.0798 12.2247 12.1066 12.2513 12.1394 12.2512C12.1723 12.2512 12.199 12.2245 12.199 12.1916C12.1991 12.1757 12.1928 12.1605 12.1815 12.1493C12.1703 12.1381 12.155 12.1318 12.1391 12.132" stroke="#1F97D4" stroke-width="1.5" stroke-linecap="round" stroke-linejoin="round"></path>
    <path d="M15.4993 12.4907V12.4907C15.4993 14.1483 14.1556 15.492 12.498 15.492V15.492" stroke="#1F97D4" stroke-width="1.5" stroke-linecap="round" stroke-linejoin="round"></path>
    <path d="M18.2861 10.7241H21.3728C21.8016 10.7241 22.2128 10.8945 22.516 11.1977V11.1977C22.8192 11.5009 22.9896 11.9121 22.9896 12.3409C22.9896 12.7698 22.8192 13.181 22.516 13.4842L21.3506 14.6496" stroke="#1F97D4" stroke-width="1.5" stroke-linecap="round" stroke-linejoin="round"></path>
    <path d="M10.7241 18.2861V21.3728C10.7241 21.8016 10.8945 22.2128 11.1977 22.516V22.516C11.5009 22.8192 11.9121 22.9896 12.3409 22.9896C12.7698 22.9896 13.181 22.8192 13.4842 22.516L14.6496 21.3506" stroke="#1F97D4" stroke-width="1.5" stroke-linecap="round" stroke-linejoin="round"></path>
    <path fill-rule="evenodd" clip-rule="evenodd" d="M24.212 24.212H24.7572C25.5999 24.212 26.4081 23.8773 27.0039 23.2814C26.4723 21.6864 24.8361 20.7369 23.1875 21.0666C22.1173 21.2807 21.2807 22.1173 21.0666 23.1875C20.7369 24.8361 21.6864 26.4723 23.2814 27.0039C23.8773 26.4081 24.212 25.5999 24.212 24.7572L24.212 24.212Z" stroke="#1F97D4" stroke-width="1.5" stroke-linecap="round" stroke-linejoin="round"></path>
</svg>