<svg fill="none" xmlns="http://www.w3.org/2000/svg" viewBox="0 0 36 36" style="height: 36px; width: 36px; margin: 0px;">
    <rect width="36" height="36" rx="8" fill="#F7F7F9"></rect>
    <path d="M21.6137 27.004L19.5488 24.9541" stroke="#BF8F2D" stroke-width="1.5" stroke-linecap="round" stroke-linejoin="round"></path>
    <path d="M24.4529 18.3003L26.7538 22.2669C27.0749 22.8235 27.0738 23.5093 26.7509 24.0648C26.428 24.6203 25.8327 24.9606 25.1902 24.9571H19.5488" stroke="#BF8F2D" stroke-width="1.5" stroke-linecap="round" stroke-linejoin="round"></path>
    <path d="M22.3882 14.7467L23.1435 11.9456" stroke="#BF8F2D" stroke-width="1.5" stroke-linecap="round" stroke-linejoin="round"></path>
    <path d="M12.0637 17.4099L9.24151 22.2639C8.92042 22.8205 8.92152 23.5062 9.24441 24.0617C9.5673 24.6172 10.1626 24.9576 10.8052 24.9541H15.4191" stroke="#BF8F2D" stroke-width="1.5" stroke-linecap="round" stroke-linejoin="round"></path>
    <path d="M14.1284 13.8593L16.4354 9.89663C16.7609 9.34137 17.3564 9.00024 18 9.00024C18.6437 9.00024 19.2391 9.34137 19.5647 9.89663L22.3879 14.7506" stroke="#BF8F2D" stroke-width="1.5" stroke-linecap="round" stroke-linejoin="round"></path>
    <path d="M9.24463 18.1603L12.0638 17.41" stroke="#BF8F2D" stroke-width="1.5" stroke-linecap="round" stroke-linejoin="round"></path>
</svg>