<svg fill="none" xmlns="http://www.w3.org/2000/svg" viewBox="0 0 36 36" style="height: 36px; width: 36px; margin: 0px;">
    <rect width="36" height="36" rx="8" fill="#F7F7F9"></rect>
    <path d="M25.9999 9.94641C28.2019 12.1632 26.4168 17.5545 22.0129 21.9882C17.609 26.4218 12.2537 28.2189 10.0518 26.0021" stroke="#DEA83C" stroke-width="1.5" stroke-linecap="round" stroke-linejoin="round"></path>
    <path d="M18.026 16.5146C16.8621 15.3378 15.27 14.6843 13.615 14.7039C12.0611 14.7466 10.8164 16.0054 10.7912 17.5597C10.7876 18.0007 10.8307 18.4408 10.9197 18.8728C12.1856 18.9118 13.4007 19.3796 14.3659 20.1994" stroke="#DEA83C" stroke-width="1.5" stroke-linecap="round" stroke-linejoin="round"></path>
    <path d="M14.3713 20.1941C13.559 19.5037 12.5656 19.061 11.5091 18.9185C10.5773 18.8077 9.69684 19.3701 9.40548 20.2621C8.64416 22.6258 8.7992 24.7408 10.052 26.0021" stroke="#DEA83C" stroke-width="1.5" stroke-linecap="round" stroke-linejoin="round"></path>
    <path d="M18.0258 16.5146C16.9716 15.4509 15.563 14.8121 14.0682 14.7197C14.0632 14.6406 14.0597 14.5615 14.0577 14.4823C14.042 13.6557 14.3678 12.8591 14.9582 12.2804C15.5486 11.7016 16.3515 11.3918 17.1776 11.4239C18.7276 11.4817 20.1973 12.1277 21.2879 13.2305" stroke="#DEA83C" stroke-width="1.5" stroke-linecap="round" stroke-linejoin="round"></path>
    <path d="M16.7876 11.4499C20.0577 8.66259 24.0205 7.9547 25.9998 9.9464" stroke="#DEA83C" stroke-width="1.5" stroke-linecap="round" stroke-linejoin="round"></path>
</svg>