<svg fill="none" xmlns="http://www.w3.org/2000/svg" viewBox="0 0 36 36" style="height: 36px; width: 36px; margin: 0px;">
    <rect width="36" height="36" rx="8" fill="#F7F7F9"></rect>
    <path d="M27 27L27.578 25.844C27.8556 25.2887 28.0001 24.6765 28 24.0557V17.5C28 16.6716 27.3284 16 26.5 16V16C25.6716 16 25 16.6716 25 17.5V21.5" stroke="#26C0E6" stroke-width="1.5" stroke-linecap="round" stroke-linejoin="round"></path>
    <path d="M20 27V24.0866C20 23.6539 20.1404 23.2328 20.4 22.8866L22.0779 20.6493C22.3603 20.2729 22.7921 20.0375 23.2615 20.0041C23.731 19.9707 24.1917 20.1427 24.5245 20.4755V20.4755C25.0958 21.0467 25.16 21.9511 24.6753 22.5974L23.6233 24" stroke="#26C0E6" stroke-width="1.5" stroke-linecap="round" stroke-linejoin="round"></path>
    <path d="M9 27L8.422 25.844C8.14439 25.2887 7.99991 24.6765 8 24.0557V17.5C8 16.6716 8.67157 16 9.5 16V16C10.3284 16 11 16.6716 11 17.5V21.5" stroke="#26C0E6" stroke-width="1.5" stroke-linecap="round" stroke-linejoin="round"></path>
    <path d="M16 27V24.0866C16 23.6539 15.8596 23.2328 15.6 22.8866L13.9221 20.6493C13.6397 20.2729 13.2079 20.0375 12.7384 20.0041C12.269 19.9707 11.8082 20.1427 11.4755 20.4755V20.4755C10.9042 21.0467 10.84 21.9511 11.3247 22.5974L12.3766 24" stroke="#26C0E6" stroke-width="1.5" stroke-linecap="round" stroke-linejoin="round"></path>
    <path fill-rule="evenodd" clip-rule="evenodd" d="M15.4605 15.8456V15.8456C14.3465 14.569 14.3465 12.6659 15.4605 11.3893L17.2466 9.34251C17.4365 9.12488 17.7112 9 18 9C18.2888 9 18.5636 9.12488 18.7535 9.34251L20.5396 11.3893C21.6535 12.6659 21.6535 14.569 20.5396 15.8455V15.8455C19.8995 16.5791 18.9735 17 18 17C17.0265 17 16.1006 16.5791 15.4605 15.8456V15.8456Z" stroke="#26C0E6" stroke-width="1.5" stroke-linecap="round" stroke-linejoin="round"></path>
</svg>