<svg fill="none" xmlns="http://www.w3.org/2000/svg" viewBox="0 0 36 36" style="height: 36px; width: 36px; margin: 0px;">
    <rect width="36" height="36" rx="8" fill="#F7F7F9"></rect>
    <path d="M20.3076 20.3079C19.9309 22.4758 19.0398 24.0001 17.9999 24.0001C17.7326 23.9939 17.4745 23.901 17.2646 23.7354" stroke="#F1692B" stroke-width="1.5" stroke-linecap="round" stroke-linejoin="round"></path>
    <path d="M15.6924 15.6923C16.0691 13.5243 16.9602 12 18.0001 12C18.2674 12.0062 18.5255 12.0991 18.7354 12.2648" stroke="#F1692B" stroke-width="1.5" stroke-linecap="round" stroke-linejoin="round"></path>
    <path d="M21.1523 17.1553C22.8414 18.5655 23.716 20.0994 23.1961 21C23.0571 21.2284 22.8476 21.4054 22.5992 21.5043" stroke="#F1692B" stroke-width="1.5" stroke-linecap="round" stroke-linejoin="round"></path>
    <path d="M14.8474 18.8446C13.1583 17.4344 12.2837 15.9005 12.8037 14.9999C12.9427 14.7715 13.1522 14.5945 13.4006 14.4956" stroke="#F1692B" stroke-width="1.5" stroke-linecap="round" stroke-linejoin="round"></path>
    <path d="M18.8447 14.8477C20.9106 14.09 22.6762 14.0995 23.1962 15.0001C23.3245 15.2347 23.373 15.5046 23.3345 15.7692" stroke="#F1692B" stroke-width="1.5" stroke-linecap="round" stroke-linejoin="round"></path>
    <path d="M17.1555 21.1525C15.0896 21.9102 13.324 21.9007 12.804 21.0001C12.6757 20.7655 12.6272 20.4955 12.6657 20.231" stroke="#F1692B" stroke-width="1.5" stroke-linecap="round" stroke-linejoin="round"></path>
    <rect x="9" y="9" width="18" height="18" rx="5" stroke="#F1692B" stroke-width="1.5" stroke-linecap="round" stroke-linejoin="round"></rect>
</svg>