<svg width="64" height="64" viewBox="0 0 64 64" fill="none" xmlns="http://www.w3.org/2000/svg">
<path d="M6.35498 15.9336H35.9679" stroke="#222829" stroke-width="2" stroke-miterlimit="10"/>
<path d="M6.35498 19.418H35.9679" stroke="#222829" stroke-width="2" stroke-miterlimit="10"/>
<path d="M6.35498 22.9023H35.9679" stroke="#222829" stroke-width="2" stroke-miterlimit="10"/>
<path d="M6.35498 26.3867H18.5485" stroke="#222829" stroke-width="2" stroke-miterlimit="10"/>
<path d="M33.355 2.87109V8.96787H39.4518" stroke="#222829" stroke-width="2" stroke-miterlimit="10"/>
<path d="M28.1291 7.22656H7.22583V12.4524H28.1291V7.22656Z" stroke="#222829" stroke-width="2" stroke-linejoin="round"/>
<path d="M34.0615 1.29297L41.3223 8.55371V28.4043C40.6681 28.2787 40.0008 28.1899 39.3223 28.1416V9.38184L32.9404 3H3V51.5166H22.3525C22.6343 52.2069 22.9588 52.8751 23.3252 53.5166H1V1H33.7695L34.0615 1.29297Z" fill="#222829"/>
<path d="M6.48438 55.001H24.2793C24.7888 55.7106 25.3517 56.3789 25.9619 57.001H4.48438V52.5166H6.48438V55.001ZM44.8066 29.4736C44.1597 29.1954 43.4921 28.956 42.8066 28.7588V6.48438H36.8389V4.48438H44.8066V29.4736Z" fill="#222829"/>
<path d="M38.9971 31C46.7275 31 52.9941 37.2667 52.9941 44.9971C52.9941 49.606 50.7664 53.6947 47.3291 56.2451L49.1514 59.4004L45.4326 59.9385L42.917 63L40.5547 58.9082C40.0434 58.9648 39.5235 58.9941 38.9971 58.9941C38.4706 58.9941 37.9508 58.9648 37.4395 58.9082L35.0771 63L32.7529 60.0488L28.8428 59.4004L30.665 56.2451C27.2279 53.6947 25 49.6059 25 44.9971C25 37.2668 31.2668 31.0002 38.9971 31ZM38.9971 33C32.3714 33.0002 27 38.3714 27 44.9971C27 48.9459 28.906 52.4492 31.8564 54.6387L33.2881 55.7012L32.3965 57.2451L32.0186 57.8994L33.0791 58.0752L33.8438 58.2021L34.3242 58.8115L34.8203 59.4424L35.707 57.9082L36.3604 56.7773L37.6592 56.9209C38.0976 56.9694 38.5443 56.9941 38.9971 56.9941C39.4499 56.9941 39.8965 56.9694 40.335 56.9209L41.6338 56.7773L42.2871 57.9082L43.2051 59.498L43.8877 58.668L44.3799 58.0693L45.1475 57.959L45.9424 57.8438L45.5977 57.2451L44.7061 55.7012L46.1377 54.6387C49.0883 52.4492 50.9941 48.946 50.9941 44.9971C50.9941 38.3713 45.6229 33 38.9971 33ZM39.6377 34.6143C45.1844 34.8955 49.5957 39.4821 49.5957 45.0986L49.582 45.6387C49.3006 51.1851 44.714 55.5965 39.0977 55.5967L38.5576 55.583C33.1898 55.3111 28.8856 51.0064 28.6133 45.6387L28.5996 45.0986C28.5996 39.3008 33.2999 34.6006 39.0977 34.6006L39.6377 34.6143ZM39.0977 36.6006C34.4044 36.6006 30.5996 40.4054 30.5996 45.0986C30.6 49.7916 34.4047 53.5967 39.0977 53.5967C43.7905 53.5965 47.5953 49.7914 47.5957 45.0986C47.5957 40.4055 43.7907 36.6008 39.0977 36.6006Z" fill="#131314"/>
<path d="M56 46.1213H60.2427" stroke="#131314" stroke-width="2" stroke-miterlimit="10"/>
<path d="M22.2427 46.1213H18" stroke="#131314" stroke-width="2" stroke-miterlimit="10"/>
<path d="M48.9999 31.9697L51.4761 28.2457" stroke="#131314" stroke-width="2" stroke-miterlimit="10"/>
<path d="M29.2428 31.9697L26.7666 28.2457" stroke="#131314" stroke-width="2" stroke-miterlimit="10"/>
<path d="M55.0001 38.1366L59.0507 36.2412" stroke="#131314" stroke-width="2" stroke-miterlimit="10"/>
<path d="M23.2426 38.1366L19.192 36.2412" stroke="#131314" stroke-width="2" stroke-miterlimit="10"/>
</svg>