<svg xmlns="http://www.w3.org/2000/svg" viewBox="0 0 48 48" fill="currentColor" style="vertical-align:middle;display:inline-block;height:auto;">
    <path d="M39.182 24.218 24 39.405 8.808 24.203a.96.96 0 0 1 0-1.358l1.358-1.354a.96.96 0 0 1 1.354 0l10.56 10.56V1.965a.96.96 0 0 1 .96-.96h1.91a.96.96 0 0 1 .96.96v30.1l10.56-10.56a.962.962 0 0 1 1.359 0l1.353 1.354a.96.96 0 0 1 0 1.359Z"></path>
    <path d="M40.32 35.565h1.92a.96.96 0 0 1 .96.96v9.6a.96.96 0 0 1-.96.96H5.76a.96.96 0 0 1-.96-.96v-9.6a.96.96 0 0 1 .96-.96h1.92a.96.96 0 0 1 .96.96v6.72h30.72v-6.72a.96.96 0 0 1 .96-.96Z"></path>
</svg>