<svg xmlns="http://www.w3.org/2000/svg" fill="none" viewBox="0 0 251 200" width="250" height="200" style="margin: 24px auto 0px;" aria-hidden="true">
    <path fill="#EEE" fill-rule="evenodd" d="M87.5 135h83a7 7 0 1 0 0-14s-6-3.134-6-7 3.952-7 8.826-7H183.5a7 7 0 1 0 0-14h-22a7 7 0 1 0 0-14h40a7 7 0 1 0 0-14h-98a7 7 0 1 0 0 14h-40a7 7 0 1 0 0 14h25a7 7 0 1 1 0 14h-40a7 7 0 1 0 0 14h39a7 7 0 1 0 0 14Zm107-35a7 7 0 1 0 14 0 7 7 0 0 0-14 0Z" clip-rule="evenodd" opacity="0.499"></path>
    <path fill="currentColor" fill-rule="evenodd" d="m148.173 64 9.302 67.843.836 6.807a4 4 0 0 1-3.483 4.457l-58.56 7.191a4 4 0 0 1-4.458-3.483l-9.016-73.428a2 2 0 0 1 1.742-2.228l.02-.003 4.859-.545m3.929-.44 4.587-.515-4.587.514Z" clip-rule="evenodd"></path>
    <path fill="#D4D6DC" fill-rule="evenodd" d="M84.687 72.398a.75.75 0 0 0-.653.836l9.015 73.427a2.749 2.749 0 0 0 3.065 2.394l58.56-7.19a2.75 2.75 0 0 0 2.395-3.064l-.835-6.798-9.301-67.834a1.25 1.25 0 0 1 2.477-.34l9.303 67.852.837 6.815a5.25 5.25 0 0 1-4.571 5.851l-58.56 7.19a5.25 5.25 0 0 1-5.85-4.571l-9.017-73.428a3.25 3.25 0 0 1 2.83-3.622l.034-.004 4.858-.544a1.25 1.25 0 1 1 .279 2.484l-4.858.545h-.008Zm7.413-2.09a1.25 1.25 0 0 1 1.103-1.381l4.587-.515a1.25 1.25 0 0 1 .278 2.485l-4.587.514a1.25 1.25 0 0 1-1.381-1.103Z" clip-rule="evenodd"></path>
    <path fill="#EEE" fill-rule="evenodd" d="m145.641 68.269 8.419 61.483.758 6.169c.244 1.987-1.15 3.793-3.114 4.034l-52.442 6.439c-1.964.241-3.753-1.174-3.997-3.161l-8.15-66.377a2 2 0 0 1 1.741-2.229l6.488-.796" clip-rule="evenodd"></path>
    <path fill="currentColor" fill-rule="evenodd" d="M101.172 54a4 4 0 0 1 4-4h45.557a4 4 0 0 1 2.827 1.17l13.443 13.436a4 4 0 0 1 1.173 2.829V130a4 4 0 0 1-4 4h-59a4 4 0 0 1-4-4V54Z" clip-rule="evenodd"></path>
    <path fill="#D4D6DC" fill-rule="evenodd" d="M150.729 52.5h-45.557a1.5 1.5 0 0 0-1.5 1.5v76a1.5 1.5 0 0 0 1.5 1.5h59a1.5 1.5 0 0 0 1.5-1.5V67.435c0-.398-.158-.78-.44-1.061l-13.443-13.435a1.5 1.5 0 0 0-1.06-.439ZM105.172 50a4 4 0 0 0-4 4v76a4 4 0 0 0 4 4h59a4 4 0 0 0 4-4V67.435a4 4 0 0 0-1.173-2.83l-13.443-13.434A4 4 0 0 0 150.729 50h-45.557Z" clip-rule="evenodd"></path>
    <path fill="#EEE" fill-rule="evenodd" d="M151.172 51.152c.69 0 1.25.56 1.25 1.25V64c0 .967.783 1.75 1.75 1.75h7.933a1.25 1.25 0 1 1 0 2.5h-7.933a4.25 4.25 0 0 1-4.25-4.25V52.402c0-.69.56-1.25 1.25-1.25ZM110.672 67a2.5 2.5 0 0 1 2.5-2.5h26a2.5 2.5 0 1 1 0 5h-26a2.5 2.5 0 0 1-2.5-2.5Zm0 12a2.5 2.5 0 0 1 2.5-2.5h43a2.5 2.5 0 1 1 0 5h-43a2.5 2.5 0 0 1-2.5-2.5Zm0 13a2.5 2.5 0 0 1 2.5-2.5h43a2.5 2.5 0 1 1 0 5h-43a2.5 2.5 0 0 1-2.5-2.5Zm0 13a2.5 2.5 0 0 1 2.5-2.5h43a2.5 2.5 0 1 1 0 5h-43a2.5 2.5 0 0 1-2.5-2.5Zm0 13a2.5 2.5 0 0 1 2.5-2.5h26a2.5 2.5 0 1 1 0 5h-26a2.5 2.5 0 0 1-2.5-2.5Z" clip-rule="evenodd"></path>
</svg>