<svg fill="none" xmlns="http://www.w3.org/2000/svg" viewBox="0 0 240 240" style="width: 240px; height: 240px;">
    <mask id="pdf-analysis-Illustrations_svg__mask0_18165_33665" style="mask-type: luminance;" maskUnits="userSpaceOnUse" x="5" y="24" width="230" height="192"><path d="M173.649 82.4071C156.681 82.1637 142.744 68.2299 118.85 42.3614C94.9563 16.4928 46.2089 16.9899 50.4363 52.0608C54.6638 87.1317 59.6386 97.8288 25.3152 106.784C-9.00825 115.74 2.95407 175.435 48.8318 195.334C94.7095 215.233 183.177 224.436 214.188 205.277C245.2 186.118 235.994 159.464 217.339 146.179C198.684 132.893 228.945 123.941 226.291 109.236C223.397 93.1865 208.384 82.9042 173.649 82.4071Z" fill="#fff"></path></mask>
    <g mask="url(#pdf-analysis-Illustrations_svg__mask0_18165_33665)"><path d="M240.003 19.2017H-1.49219V228.441H240.003V19.2017Z" fill="url(#pdf-analysis-Illustrations_svg__paint0_linear_18165_33665)"></path><path d="M-2.05469 143.741C-2.05469 143.741 12.3933 129.986 27.1773 141.986C41.9613 153.986 65.3099 185.751 86.0527 179.652C106.796 173.553 36.8082 205.658 36.8082 205.658L-2.05469 143.741Z" fill="url(#pdf-analysis-Illustrations_svg__paint1_linear_18165_33665)"></path><path opacity="0.6" d="M262.537 91.7093C262.537 91.7093 204.618 77.9127 191.436 112.264C178.253 146.614 98.6996 202.726 79.2424 183.664C59.7853 164.601 14.7441 205.73 14.7441 205.73V257.186H185.576C185.576 257.186 226.109 224.429 207.996 190.222C189.882 156.016 229.777 115.846 262.551 139.384L262.537 91.7093Z" fill="url(#pdf-analysis-Illustrations_svg__paint2_linear_18165_33665)" style="mix-blend-mode: screen;"></path><path opacity="0.6" d="M112.733 46.044C112.733 46.044 63.5609 45.7663 55.1334 78.8692C46.706 111.972 -69.166 122.618 -69.166 122.618V148.929C-69.166 148.929 12.5814 108.235 81.3483 132.3C150.115 156.365 234.763 122.203 234.763 122.203V46.044H112.733ZM160.716 97.4726C134.659 97.4726 113.546 89.3469 113.546 79.3286C113.546 69.3103 134.666 61.1812 160.716 61.1812C186.767 61.1812 207.883 69.3069 207.883 79.3286C207.883 89.3503 186.767 97.4863 160.716 97.4863V97.4726Z" fill="url(#pdf-analysis-Illustrations_svg__paint3_linear_18165_33665)" style="mix-blend-mode: screen;"></path></g>
    <circle cx="53.8813" cy="178.503" r="6.60008" fill="url(#pdf-analysis-Illustrations_svg__paint4_linear_18165_33665)"></circle>
    <circle cx="192.902" cy="112.78" r="4.22409" fill="url(#pdf-analysis-Illustrations_svg__paint5_linear_18165_33665)"></circle>
    <circle cx="135.852" cy="177.283" r="3.41208" fill="url(#pdf-analysis-Illustrations_svg__paint6_linear_18165_33665)"></circle>
    <circle cx="38.0333" cy="75.0797" r="7.78335" fill="url(#pdf-analysis-Illustrations_svg__paint7_linear_18165_33665)"></circle>
    <path d="M61.7617 43.4256C61.7617 40.2603 64.3277 37.6943 67.493 37.6943H144.681C147.846 37.6943 150.412 40.2603 150.412 43.4257V159.725C150.412 162.89 147.846 165.456 144.681 165.456H67.493C64.3277 165.456 61.7617 162.89 61.7617 159.725V43.4256Z" fill="url(#pdf-analysis-Illustrations_svg__paint8_linear_18165_33665)"></path>
    <path d="M71.0951 87.7988H132.991C133.866 87.7988 134.574 88.5095 134.574 89.3863V90.3539C134.574 91.2306 133.866 91.9414 132.991 91.9414H71.0951C70.2208 91.9414 69.5121 91.2306 69.5121 90.3539V89.3863C69.5121 88.5095 70.2208 87.7988 71.0951 87.7988Z" fill="#CBDCE7"></path>
    <path d="M71.1029 97.5464H100.087C100.966 97.5464 101.678 98.2571 101.678 99.1338V100.101C101.678 100.978 100.966 101.689 100.087 101.689H71.1029C70.2244 101.689 69.5122 100.978 69.5122 100.101V99.1338C69.5122 98.2571 70.2244 97.5464 71.1029 97.5464Z" fill="#CBDCE7"></path>
    <path d="M71.1029 107.05H100.087C100.966 107.05 101.678 107.761 101.678 108.637V109.605C101.678 110.482 100.966 111.192 100.087 111.192H71.1029C70.2244 111.192 69.5122 110.482 69.5122 109.605V108.637C69.5122 107.761 70.2244 107.05 71.1029 107.05Z" fill="#CBDCE7"></path>
    <path d="M71.1005 124.351H91.3189C92.1956 124.351 92.9062 125.061 92.9062 125.938V126.906C92.9062 127.782 92.1956 128.493 91.3189 128.493H71.1005C70.2238 128.493 69.5131 127.782 69.5131 126.906V125.938C69.5131 125.061 70.2238 124.351 71.1005 124.351Z" fill="#CBDCE7"></path>
    <path d="M71.1005 133.61H91.3189C92.1956 133.61 92.9062 134.321 92.9062 135.198V136.165C92.9062 137.042 92.1956 137.753 91.3189 137.753H71.1005C70.2238 137.753 69.5131 137.042 69.5131 136.165V135.198C69.5131 134.321 70.2238 133.61 71.1005 133.61Z" fill="#CBDCE7"></path>
    <path d="M71.1005 143.21H91.3189C92.1956 143.21 92.9062 143.921 92.9062 144.798V145.766C92.9062 146.642 92.1956 147.353 91.3189 147.353H71.1005C70.2238 147.353 69.5131 146.642 69.5131 145.766V144.798C69.5131 143.921 70.2238 143.21 71.1005 143.21Z" fill="#CBDCE7"></path>
    <circle cx="172.367" cy="56.2087" r="11.0881" fill="url(#pdf-analysis-Illustrations_svg__paint9_linear_18165_33665)"></circle>
    <g clip-path="url(#pdf-analysis-Illustrations_svg__clip0_18165_33665)"><path d="M211.803 177.41L204.102 170.759L195.541 180.703L203.242 187.355C205.051 188.917 207.404 189.372 209.342 188.732C210.211 188.45 210.986 187.936 211.583 187.244L212.921 185.688C213.889 184.564 214.303 183.083 214.089 181.515C213.875 179.948 213.065 178.499 211.803 177.41Z" fill="url(#pdf-analysis-Illustrations_svg__paint10_linear_18165_33665)"></path><path d="M181.385 151.134L181.299 151.322C180.505 153.055 179.848 154.848 179.334 156.684C178.628 159.197 178.191 161.777 178.03 164.383C178.01 164.693 178.006 165.046 178.006 165.485L178.006 165.557L195.751 180.88L204.312 170.936L181.385 151.134Z" fill="url(#pdf-analysis-Illustrations_svg__paint11_linear_18165_33665)"></path><path d="M176.887 147.252L168.326 157.196L178.319 165.821L178.319 165.483C178.319 165.052 178.323 164.703 178.342 164.399C178.503 161.817 178.936 159.258 179.635 156.767C180.145 154.947 180.797 153.169 181.584 151.451L181.633 151.345L176.887 147.252Z" fill="url(#pdf-analysis-Illustrations_svg__paint12_linear_18165_33665)"></path><path d="M172.603 141.322C172.527 141.257 172.411 141.279 172.364 141.367C169.846 146.145 166.178 150.216 161.691 153.215C161.606 153.272 161.598 153.394 161.676 153.461L164.952 156.292C166.395 157.539 168.577 157.378 169.821 155.933L176.023 148.73C177.237 147.319 177.08 145.191 175.672 143.974L172.603 141.322Z" fill="url(#pdf-analysis-Illustrations_svg__paint13_linear_18165_33665)"></path><path d="M172.054 110.354C170.212 107.094 167.821 104.178 164.985 101.736C158.421 96.0685 150.05 93.2973 141.412 93.9329C132.773 94.5684 124.903 98.535 119.25 105.101C113.596 111.668 110.839 120.051 111.479 128.702C112.12 137.354 116.092 145.239 122.656 150.907C128.131 155.635 134.83 158.346 142.028 158.747C145.483 158.94 148.945 158.58 152.286 157.681C152.875 157.523 153.458 157.349 154.035 157.158C159.605 155.317 164.567 151.993 168.391 147.541C169.998 145.676 171.388 143.635 172.536 141.457C175.895 135.071 177.024 127.618 175.715 120.473C175.067 116.919 173.829 113.499 172.054 110.354ZM116.226 128.263C116.347 129.004 116.495 129.923 116.174 130.462C116.072 130.639 115.924 130.786 115.745 130.886C115.567 130.986 115.365 131.036 115.16 131.031C114.896 131.022 114.639 130.947 114.411 130.813C114.184 130.678 113.994 130.489 113.859 130.262C113.582 129.785 113.505 129.221 113.45 128.683C113.138 125.654 113.372 122.594 114.141 119.648C114.353 118.838 114.638 117.899 115.153 117.085C115.269 116.902 115.418 116.699 115.619 116.595C115.652 116.578 115.686 116.564 115.72 116.552C115.9 116.498 116.094 116.51 116.266 116.588C116.423 116.657 116.564 116.758 116.679 116.885C116.795 117.012 116.882 117.162 116.937 117.325C117.106 117.865 116.967 118.447 116.833 119.008L116.82 119.062C116.163 121.826 115.929 124.674 116.125 127.509C116.136 127.729 116.179 127.989 116.224 128.265L116.226 128.263ZM163.124 142.995C158.682 148.154 152.501 151.271 145.71 151.77C138.92 152.27 132.346 150.093 127.19 145.638C126.696 145.211 126.216 144.765 125.758 144.304C116.415 134.914 115.867 119.693 124.512 109.652C126.694 107.112 129.355 105.029 132.343 103.521C135.331 102.014 138.587 101.111 141.925 100.866C145.262 100.62 148.616 101.036 151.795 102.09C154.973 103.144 157.913 104.815 160.447 107.007C171.094 116.2 172.294 132.343 163.124 142.995ZM176.037 129.715C176.522 124.993 175.971 120.22 174.422 115.731C175.986 120.217 176.537 124.993 176.037 129.715ZM174.144 114.954C174.176 115.038 174.21 115.12 174.241 115.205C174.21 115.12 174.175 115.038 174.144 114.954Z" fill="url(#pdf-analysis-Illustrations_svg__paint14_linear_18165_33665)"></path><path opacity="0.8" d="M154.935 103.29C154.931 103.283 154.925 103.277 154.918 103.274C144.523 98.2377 131.997 100.839 124.455 109.601C120.252 114.482 118.047 120.774 118.278 127.218C118.51 133.662 121.162 139.783 125.705 144.358C125.711 144.365 125.72 144.369 125.73 144.369C127.366 144.444 129.006 144.336 130.618 144.047C132.037 143.794 133.435 143.44 134.803 142.988C138.585 141.729 142.1 139.778 145.17 137.234C149.371 133.757 152.682 129.327 154.829 124.311C156.828 119.632 157.597 114.61 157.055 109.79C156.806 107.567 156.111 105.44 154.935 103.29ZM135.138 118.42C135.902 122.242 134.943 126.484 132.571 129.772C131.501 131.255 130.127 132.481 128.804 133.141C127.057 134.011 125.445 133.928 124.01 132.898C122.656 131.924 121.775 130.203 121.39 127.782C120.811 124.061 121.383 120.253 123.03 116.869C124.19 114.502 125.833 112.885 127.605 112.3C128.086 112.14 128.589 112.058 129.096 112.058C130.576 112.064 132.111 112.833 133.206 114.122C134.136 115.21 134.785 116.656 135.138 118.42Z" fill="#ECECEC"></path><path opacity="0.8" d="M154.968 103.168L154.532 102.958L154.764 103.383C155.929 105.511 156.615 107.614 156.862 109.811C157.401 114.6 156.636 119.587 154.65 124.234C150.274 134.475 141.052 141.993 130.584 143.855C128.987 144.141 127.363 144.248 125.741 144.174L125.342 144.156L125.624 144.439C126.085 144.904 126.571 145.356 127.066 145.784C132.26 150.272 138.887 152.467 145.725 151.963C147.834 151.81 149.916 151.398 151.923 150.736C156.328 149.279 160.251 146.647 163.27 143.122C172.51 132.39 171.3 116.123 160.573 106.861C158.873 105.39 156.989 104.149 154.968 103.168Z" fill="#fff"></path><path d="M133.357 113.995C132.225 112.664 130.635 111.869 129.1 111.863C126.705 111.852 124.371 113.693 122.856 116.783C121.192 120.203 120.614 124.052 121.2 127.812C121.592 130.286 122.5 132.05 123.898 133.055C125.263 134.036 126.699 134.124 128.058 133.675C129.865 133.078 131.537 131.535 132.728 129.886C135.131 126.557 136.101 122.257 135.327 118.382C134.968 116.585 134.304 115.109 133.357 113.995Z" fill="#fff"></path></g>
    <path d="M57.5117 53.6565C57.5117 51.1907 59.5106 49.1919 61.9763 49.1919H95.3253C97.791 49.1919 99.7899 51.1907 99.7899 53.6565V66.6561C99.7899 69.1218 97.791 71.1207 95.3253 71.1207H61.9763C59.5106 71.1207 57.5117 69.1218 57.5117 66.6561V53.6565Z" fill="url(#pdf-analysis-Illustrations_svg__paint15_linear_18165_33665)"></path>
    <path d="M86.0137 66.0916V54.2212H93.6182V56.0238H88.164V59.2464H93.0965V61.049H88.164V66.0916H86.0137Z" fill="#fff"></path>
    <path d="M78.21 66.0916H74.1875V54.2212H78.2911C79.4697 54.2212 80.4821 54.4588 81.3283 54.9341C82.1784 55.4055 82.8314 56.0837 83.2874 56.9685C83.7434 57.8534 83.9713 58.9122 83.9713 60.1448C83.9713 61.3813 83.7414 62.4439 83.2816 63.3327C82.8256 64.2214 82.1668 64.9034 81.3051 65.3787C80.4473 65.854 79.4156 66.0916 78.21 66.0916ZM76.3379 64.2311H78.1057C78.9326 64.2311 79.6223 64.0804 80.1749 63.779C80.7274 63.4737 81.1428 63.0197 81.421 62.4169C81.6993 61.8102 81.8384 61.0529 81.8384 60.1448C81.8384 59.2368 81.6993 58.4833 81.421 57.8843C81.1428 57.2815 80.7313 56.8314 80.1865 56.5338C79.6455 56.2324 78.9732 56.0817 78.1694 56.0817H76.3379V64.2311Z" fill="#fff"></path>
    <path d="M63.6836 66.0916V54.2212H68.135C69.0469 54.2212 69.812 54.3912 70.4303 54.7312C71.0524 55.0713 71.5219 55.5388 71.8387 56.1339C72.1594 56.7251 72.3198 57.3975 72.3198 58.151C72.3198 58.9122 72.1594 59.5884 71.8387 60.1796C71.518 60.7708 71.0447 61.2364 70.4187 61.5765C69.7927 61.9126 69.0218 62.0807 68.106 62.0807H65.1558V60.3129H67.8162C68.3495 60.3129 68.7861 60.2202 69.1261 60.0347C69.4662 59.8492 69.7173 59.5942 69.8796 59.2696C70.0458 58.945 70.1289 58.5721 70.1289 58.151C70.1289 57.7298 70.0458 57.3588 69.8796 57.0381C69.7173 56.7174 69.4642 56.4681 69.1203 56.2904C68.7803 56.1088 68.3417 56.018 67.8046 56.018H65.834V66.0916H63.6836Z" fill="#fff"></path>
    <defs><linearGradient id="pdf-analysis-Illustrations_svg__paint0_linear_18165_33665" x1="-13.1143" y1="283.688" x2="281.426" y2="245.129" gradientUnits="userSpaceOnUse"><stop stop-color="#3D82F2"></stop><stop offset="1" stop-color="#7F54E8"></stop></linearGradient><linearGradient id="pdf-analysis-Illustrations_svg__paint1_linear_18165_33665" x1="35.6184" y1="193.771" x2="51.9933" y2="129.883" gradientUnits="userSpaceOnUse"><stop stop-color="#fff" stop-opacity="0"></stop><stop offset="1" stop-color="#fff" stop-opacity="0.5"></stop></linearGradient><linearGradient id="pdf-analysis-Illustrations_svg__paint2_linear_18165_33665" x1="161.319" y1="189.088" x2="292.496" y2="99.9619" gradientUnits="userSpaceOnUse"><stop stop-color="#fff" stop-opacity="0"></stop><stop offset="1" stop-color="#fff" stop-opacity="0.5"></stop></linearGradient><linearGradient id="pdf-analysis-Illustrations_svg__paint3_linear_18165_33665" x1="134.436" y1="49.2977" x2="56.6831" y2="159.386" gradientUnits="userSpaceOnUse"><stop stop-color="#fff" stop-opacity="0"></stop><stop offset="1" stop-color="#fff" stop-opacity="0.5"></stop></linearGradient><linearGradient id="pdf-analysis-Illustrations_svg__paint4_linear_18165_33665" x1="46.646" y1="188.589" x2="62.8135" y2="186.755" gradientUnits="userSpaceOnUse"><stop stop-color="#F28907"></stop><stop offset="1" stop-color="#FDD017"></stop></linearGradient><linearGradient id="pdf-analysis-Illustrations_svg__paint5_linear_18165_33665" x1="188.271" y1="119.234" x2="198.618" y2="118.061" gradientUnits="userSpaceOnUse"><stop stop-color="#F28907"></stop><stop offset="1" stop-color="#FDD017"></stop></linearGradient><linearGradient id="pdf-analysis-Illustrations_svg__paint6_linear_18165_33665" x1="132.111" y1="182.497" x2="140.469" y2="181.549" gradientUnits="userSpaceOnUse"><stop stop-color="#F28907"></stop><stop offset="1" stop-color="#FDD017"></stop></linearGradient><linearGradient id="pdf-analysis-Illustrations_svg__paint7_linear_18165_33665" x1="29.5008" y1="86.9733" x2="48.5669" y2="84.8107" gradientUnits="userSpaceOnUse"><stop stop-color="#3D82F2"></stop><stop offset="1" stop-color="#7F54E8"></stop></linearGradient><linearGradient id="pdf-analysis-Illustrations_svg__paint8_linear_18165_33665" x1="106.087" y1="26.593" x2="106.087" y2="314.355" gradientUnits="userSpaceOnUse"><stop stop-color="#fff"></stop><stop offset="1" stop-color="#B8D2E5"></stop></linearGradient><linearGradient id="pdf-analysis-Illustrations_svg__paint9_linear_18165_33665" x1="172.367" y1="51.2661" x2="172.367" y2="64.8535" gradientUnits="userSpaceOnUse"><stop stop-color="#F28907"></stop><stop offset="1" stop-color="#E05A0C"></stop></linearGradient><linearGradient id="pdf-analysis-Illustrations_svg__paint10_linear_18165_33665" x1="210.856" y1="177.29" x2="202.399" y2="189.947" gradientUnits="userSpaceOnUse"><stop stop-color="#97C6FF"></stop><stop offset="1" stop-color="#3D82F2"></stop></linearGradient><linearGradient id="pdf-analysis-Illustrations_svg__paint11_linear_18165_33665" x1="198.386" y1="160.857" x2="183.868" y2="177.571" gradientUnits="userSpaceOnUse"><stop stop-color="#97C6FF"></stop><stop offset="1" stop-color="#3D82F2"></stop></linearGradient><linearGradient id="pdf-analysis-Illustrations_svg__paint12_linear_18165_33665" x1="181.013" y1="154.357" x2="172.838" y2="164.846" gradientUnits="userSpaceOnUse"><stop stop-color="#97C6FF"></stop><stop offset="1" stop-color="#3D82F2"></stop></linearGradient><linearGradient id="pdf-analysis-Illustrations_svg__paint13_linear_18165_33665" x1="164.081" y1="163.859" x2="184.059" y2="154.078" gradientUnits="userSpaceOnUse"><stop stop-color="#F28907"></stop><stop offset="1" stop-color="#FDD017"></stop></linearGradient><linearGradient id="pdf-analysis-Illustrations_svg__paint14_linear_18165_33665" x1="110.488" y1="108.124" x2="145.446" y2="130.446" gradientUnits="userSpaceOnUse"><stop stop-color="#97C6FF"></stop><stop offset="1" stop-color="#3D82F2"></stop></linearGradient><linearGradient id="pdf-analysis-Illustrations_svg__paint15_linear_18165_33665" x1="103.138" y1="43.7783" x2="51.3189" y2="72.2952" gradientUnits="userSpaceOnUse"><stop stop-color="#F28907"></stop><stop offset="1" stop-color="#E05A0C"></stop></linearGradient><clipPath id="pdf-analysis-Illustrations_svg__clip0_18165_33665"><rect width="85.5348" height="118.239" fill="#fff" transform="translate(102.832 105.635) rotate(-18.2675)"></rect></clipPath></defs>
</svg>