<svg fill="none" xmlns="http://www.w3.org/2000/svg" viewBox="0 0 240 240" style="width: 240px; height: 240px;">
    <mask id="recommender-Illustrations_svg__mask0_18166_43490" style="mask-type: luminance;" maskUnits="userSpaceOnUse" x="5" y="24" width="216" height="198">
        <path d="M160.477 65.6551C148.621 24.3511 103.408 14.4597 74.1626 33.6871C41.5603 55.1191 63.4209 82.03 29.6392 97.8014C-7.67399 115.219 -1.02942 187.102 44.9134 188.563C89.6769 189.989 88.5488 218.391 125.001 220.904C169.158 223.945 205.861 205.884 216.452 174.533C237.195 113.155 177.345 124.424 160.477 65.6551Z" fill="#fff"></path>
    </mask>
    <g mask="url(#recommender-Illustrations_svg__mask0_18166_43490)">
        <path d="M240.003 19.1992H-1.49219V228.438H240.003V19.1992Z" fill="url(#recommender-Illustrations_svg__paint0_linear_18166_43490)"></path>
        <path d="M-13.3691 143.738C-13.3691 143.738 1.07886 129.983 15.8629 141.983C30.6469 153.983 53.9954 185.748 74.7383 179.649C95.4811 173.55 25.4937 205.655 25.4937 205.655L-13.3691 143.738Z" fill="url(#recommender-Illustrations_svg__paint1_linear_18166_43490)"></path>
        <path opacity="0.6" d="M231.68 108.848C231.68 108.848 173.761 95.0514 160.578 129.402C147.395 163.753 67.8421 219.865 48.385 200.802C28.9279 181.739 -16.1133 222.869 -16.1133 222.869V274.325H154.719C154.719 274.325 195.251 241.568 177.138 207.361C159.025 173.154 198.92 132.985 231.694 156.522L231.68 108.848Z" fill="url(#recommender-Illustrations_svg__paint2_linear_18166_43490)" style="mix-blend-mode: screen;"></path>
        <path opacity="0.6" d="M112.733 46.0411C112.733 46.0411 63.5609 45.7634 55.1334 78.8662C46.706 111.969 -69.166 122.615 -69.166 122.615V148.926C-69.166 148.926 12.5814 108.232 81.3483 132.297C150.115 156.362 234.763 122.2 234.763 122.2V46.0411H112.733ZM160.716 97.4697C134.659 97.4697 113.546 89.3439 113.546 79.3257C113.546 69.3074 134.666 61.1782 160.716 61.1782C186.767 61.1782 207.883 69.3039 207.883 79.3257C207.883 89.3474 186.767 97.4834 160.716 97.4834V97.4697Z" fill="url(#recommender-Illustrations_svg__paint3_linear_18166_43490)" style="mix-blend-mode: screen;"></path>
        <path d="M153.318 208.312L183.565 191.857L183.537 176.95L153.299 193.396L153.318 208.312Z" fill="url(#recommender-Illustrations_svg__paint4_linear_18166_43490)"></path>
        <path d="M153.299 193.399L183.537 176.953L146.138 171.691L115.891 188.147L153.299 193.399Z" fill="url(#recommender-Illustrations_svg__paint5_linear_18166_43490)"></path>
        <path d="M115.891 188.147L115.919 203.063L153.317 208.316L153.299 193.4L115.891 188.147Z" fill="url(#recommender-Illustrations_svg__paint6_linear_18166_43490)"></path>
        <path d="M146.288 192.413L176.536 175.967L176.507 161.051L146.26 177.497L146.288 192.413Z" fill="url(#recommender-Illustrations_svg__paint7_linear_18166_43490)"></path>
        <path d="M146.26 177.5L176.507 161.054L139.099 157.02L108.861 172.248L146.26 177.5Z" fill="url(#recommender-Illustrations_svg__paint8_linear_18166_43490)"></path>
        <path d="M108.861 172.251L108.89 187.167L146.288 192.419L146.26 177.503L108.861 172.251Z" fill="url(#recommender-Illustrations_svg__paint9_linear_18166_43490)"></path>
        <path d="M183.564 191.856L149.717 214.509L136.02 211.524L112.026 217.749L73.6641 208.019L115.909 198.223L115.918 203.06L153.316 208.312L183.564 191.856Z" fill="url(#recommender-Illustrations_svg__paint10_linear_18166_43490)" style="mix-blend-mode: overlay;"></path>
        <g style="mix-blend-mode: overlay;" opacity="0.6">
            <path d="M115.891 188.146L115.919 203.062L153.317 208.315L153.299 193.399L115.891 188.146Z" fill="url(#recommender-Illustrations_svg__paint11_linear_18166_43490)"></path>
        </g>
        <g style="mix-blend-mode: overlay;" opacity="0.6">
            <path d="M108.861 172.244L108.89 187.16L146.288 192.412L146.26 177.496L108.861 172.244Z" fill="url(#recommender-Illustrations_svg__paint12_linear_18166_43490)"></path>
        </g>
    </g>
    <path d="M119.998 39.8525C119.998 37.0528 122.295 34.6203 125.129 34.4193L194.235 29.5179C197.069 29.3169 199.367 31.4236 199.367 34.2233V137.089C199.367 139.889 197.069 142.321 194.235 142.522L125.129 147.424C122.295 147.625 119.998 145.518 119.998 142.718V39.8525Z" fill="url(#recommender-Illustrations_svg__paint13_linear_18166_43490)"></path>
    <path d="M120.299 41.8785C120.299 39.2289 122.481 36.9285 125.172 36.7403L190.803 32.151C193.494 31.9628 195.676 33.9581 195.676 36.6076V133.957C195.676 136.606 193.494 138.907 190.803 139.095L125.172 143.684C122.481 143.872 120.299 141.877 120.299 139.228V41.8785Z" fill="url(#recommender-Illustrations_svg__paint14_linear_18166_43490)" fill-opacity="0.6" style="mix-blend-mode: overlay;"></path>
    <path d="M120.342 40.8408C120.342 38.1986 122.479 35.9072 125.114 35.7229L189.389 31.2284C192.025 31.0441 194.161 33.0366 194.161 35.6788V132.758C194.161 135.4 192.025 137.691 189.389 137.876L125.114 142.37C122.479 142.555 120.342 140.562 120.342 137.92V40.8408Z" fill="url(#recommender-Illustrations_svg__paint15_linear_18166_43490)"></path>
    <rect width="54.1246" height="4.03167" rx="2.01584" transform="matrix(0.997564 -0.0697565 0 1 130.256 46.4766)" fill="url(#recommender-Illustrations_svg__paint16_linear_18166_43490)" fill-opacity="0.3"></rect>
    <rect width="54.1246" height="4.03167" rx="2.01584" transform="matrix(0.997564 -0.0697565 0 1 130.256 56.3252)" fill="url(#recommender-Illustrations_svg__paint17_linear_18166_43490)" fill-opacity="0.3"></rect>
    <rect width="54.1246" height="4.03167" rx="2.01584" transform="matrix(0.997564 -0.0697565 0 1 130.256 66.1748)" fill="url(#recommender-Illustrations_svg__paint18_linear_18166_43490)" fill-opacity="0.3"></rect>
    <rect width="54.1246" height="4.03167" rx="2.01584" transform="matrix(0.997564 -0.0697565 0 1 130.256 76.0293)" fill="url(#recommender-Illustrations_svg__paint19_linear_18166_43490)" fill-opacity="0.3"></rect>
    <rect width="54.1246" height="4.03167" rx="2.01584" transform="matrix(0.997564 -0.0697565 0 1 130.256 86.3145)" fill="url(#recommender-Illustrations_svg__paint20_linear_18166_43490)" fill-opacity="0.3"></rect>
    <rect width="54.1246" height="4.03167" rx="2.01584" transform="matrix(0.997564 -0.0697565 0 1 130.256 96.9395)" fill="url(#recommender-Illustrations_svg__paint21_linear_18166_43490)" fill-opacity="0.3"></rect>
    <circle cx="7.78335" cy="7.78335" r="7.78335" transform="matrix(0.997564 -0.0697565 0 1 168.721 113.636)" fill="url(#recommender-Illustrations_svg__paint22_linear_18166_43490)"></circle>
    <path d="M119.998 39.8525C119.998 37.0528 117.706 34.6206 114.878 34.4201L45.9266 29.5297C43.099 29.3291 40.8068 31.4362 40.8068 34.2359V137.102C40.8068 139.901 43.099 142.333 45.9266 142.534L114.878 147.424C117.706 147.625 119.998 145.518 119.998 142.718V39.8525Z" fill="url(#recommender-Illustrations_svg__paint23_linear_18166_43490)"></path>
    <path d="M120 41.9913C120 39.3404 117.829 37.0396 115.15 36.8523L49.8323 32.2848C47.1537 32.0975 44.9823 34.0947 44.9823 36.7456V134.145C44.9823 136.796 47.1537 139.097 49.8323 139.284L115.15 143.852C117.829 144.039 120 142.042 120 139.391V41.9913Z" fill="url(#recommender-Illustrations_svg__paint24_linear_18166_43490)" fill-opacity="0.6" style="mix-blend-mode: overlay;"></path>
    <path d="M120 40.8408C120 38.1986 117.863 35.9072 115.228 35.7229L50.953 31.2284C48.3172 31.0441 46.1805 33.0366 46.1805 35.6788V132.758C46.1805 135.4 48.3172 137.691 50.953 137.876L115.228 142.37C117.863 142.555 120 140.562 120 137.92V40.8408Z" fill="url(#recommender-Illustrations_svg__paint25_linear_18166_43490)"></path>
    <rect width="54.1246" height="4.03167" rx="2.01584" transform="matrix(-0.997564 -0.0697565 0 1 110.086 46.4766)" fill="url(#recommender-Illustrations_svg__paint26_linear_18166_43490)" fill-opacity="0.3"></rect>
    <rect width="54.1246" height="4.03167" rx="2.01584" transform="matrix(-0.997564 -0.0697565 0 1 110.086 56.3262)" fill="url(#recommender-Illustrations_svg__paint27_linear_18166_43490)" fill-opacity="0.3"></rect>
    <rect width="54.1246" height="4.03167" rx="2.01584" transform="matrix(-0.997564 -0.0697565 0 1 110.088 66.1748)" fill="url(#recommender-Illustrations_svg__paint28_linear_18166_43490)" fill-opacity="0.3"></rect>
    <rect width="54.1246" height="4.03167" rx="2.01584" transform="matrix(-0.997564 -0.0697565 0 1 110.086 76.0293)" fill="url(#recommender-Illustrations_svg__paint29_linear_18166_43490)" fill-opacity="0.3"></rect>
    <rect width="26.5875" height="4.03167" rx="2.01584" transform="matrix(-0.997564 -0.0697565 0 1 110.088 85.8818)" fill="url(#recommender-Illustrations_svg__paint30_linear_18166_43490)" fill-opacity="0.3"></rect>
    <rect width="26.5875" height="4.03167" rx="2.01584" transform="matrix(-0.997564 -0.0697565 0 1 110.088 95.7334)" fill="url(#recommender-Illustrations_svg__paint31_linear_18166_43490)" fill-opacity="0.3"></rect>
    <rect width="26.5875" height="4.03167" rx="2.01584" transform="matrix(-0.997564 -0.0697565 0 1 110.088 105.582)" fill="url(#recommender-Illustrations_svg__paint32_linear_18166_43490)" fill-opacity="0.3"></rect>
    <rect width="26.5875" height="4.03167" rx="2.01584" transform="matrix(-0.997564 -0.0697565 0 1 110.088 115.868)" fill="url(#recommender-Illustrations_svg__paint33_linear_18166_43490)" fill-opacity="0.3"></rect>
    <rect x="30.1719" y="113.82" width="43.8857" height="43.2" rx="21.6" fill="url(#recommender-Illustrations_svg__paint34_linear_18166_43490)"></rect>
    <path fill-rule="evenodd" clip-rule="evenodd" d="M56.2767 126.165C54.2633 125.276 52.0138 125.056 49.8637 125.537C47.7136 126.018 45.7782 127.175 44.346 128.835C42.9139 130.494 42.0618 132.568 41.9167 134.747C41.7717 136.926 42.3415 139.092 43.5413 140.924C44.741 142.756 46.5063 144.154 48.574 144.911C50.6416 145.667 52.9008 145.742 55.0146 145.123C57.1284 144.504 58.9836 143.224 60.3034 141.475C61.6232 139.727 62.337 137.602 62.3382 135.419V134.385C62.3382 133.763 62.8467 133.26 63.474 133.26C64.1012 133.26 64.6097 133.763 64.6097 134.385V135.42C64.6082 138.088 63.7358 140.685 62.1227 142.823C60.5096 144.96 58.2422 146.524 55.6587 147.28C53.0752 148.037 50.3139 147.946 47.7868 147.021C45.2596 146.096 43.102 144.387 41.6357 142.149C40.1693 139.91 39.4729 137.262 39.6501 134.599C39.8274 131.936 40.8689 129.401 42.6193 127.373C44.3697 125.344 46.7352 123.93 49.3631 123.342C51.991 122.754 54.7403 123.023 57.2012 124.109C57.7742 124.362 58.0317 125.027 57.7764 125.595C57.5211 126.162 56.8496 126.418 56.2767 126.165Z" fill="url(#recommender-Illustrations_svg__paint35_linear_18166_43490)"></path>
    <path fill-rule="evenodd" clip-rule="evenodd" d="M64.2756 125.624C64.7194 126.063 64.7197 126.775 64.2764 127.215L52.9188 138.476C52.7058 138.687 52.4169 138.806 52.1156 138.806C51.8143 138.806 51.5253 138.688 51.3122 138.477L47.9049 135.102C47.4614 134.662 47.4614 133.95 47.9049 133.511C48.3485 133.071 49.0676 133.071 49.5111 133.511L52.1149 136.09L62.6694 125.625C63.1127 125.185 63.8318 125.185 64.2756 125.624Z" fill="url(#recommender-Illustrations_svg__paint36_linear_18166_43490)"></path>
    <defs>
        <linearGradient id="recommender-Illustrations_svg__paint0_linear_18166_43490" x1="-13.1143" y1="283.685" x2="281.426" y2="245.127" gradientUnits="userSpaceOnUse"><stop stop-color="#3D82F2"></stop><stop offset="1" stop-color="#7F54E8"></stop></linearGradient>
        <linearGradient id="recommender-Illustrations_svg__paint1_linear_18166_43490" x1="24.304" y1="193.768" x2="40.6789" y2="129.88" gradientUnits="userSpaceOnUse"><stop stop-color="#fff" stop-opacity="0"></stop><stop offset="1" stop-color="#fff" stop-opacity="0.5"></stop></linearGradient>
        <linearGradient id="recommender-Illustrations_svg__paint2_linear_18166_43490" x1="130.462" y1="206.226" x2="261.639" y2="117.101" gradientUnits="userSpaceOnUse"><stop stop-color="#fff" stop-opacity="0"></stop><stop offset="1" stop-color="#fff" stop-opacity="0.5"></stop></linearGradient>
        <linearGradient id="recommender-Illustrations_svg__paint3_linear_18166_43490" x1="134.436" y1="49.2948" x2="56.6831" y2="159.383" gradientUnits="userSpaceOnUse"><stop stop-color="#fff" stop-opacity="0"></stop><stop offset="1" stop-color="#fff" stop-opacity="0.5"></stop></linearGradient>
        <linearGradient id="recommender-Illustrations_svg__paint4_linear_18166_43490" x1="153.299" y1="192.631" x2="183.565" y2="192.631" gradientUnits="userSpaceOnUse"><stop stop-color="#fff"></stop><stop offset="1" stop-color="#B8D2E5"></stop></linearGradient>
        <linearGradient id="recommender-Illustrations_svg__paint5_linear_18166_43490" x1="149.712" y1="177.707" x2="149.712" y2="191.008" gradientUnits="userSpaceOnUse"><stop stop-color="#F28907"></stop><stop offset="1" stop-color="#E05A0C"></stop></linearGradient>
        <linearGradient id="recommender-Illustrations_svg__paint6_linear_18166_43490" x1="115.891" y1="198.236" x2="153.317" y2="198.236" gradientUnits="userSpaceOnUse"><stop stop-color="#fff"></stop><stop offset="1" stop-color="#B8D2E5"></stop></linearGradient>
        <linearGradient id="recommender-Illustrations_svg__paint7_linear_18166_43490" x1="146.26" y1="176.732" x2="176.536" y2="176.732" gradientUnits="userSpaceOnUse"><stop stop-color="#fff"></stop><stop offset="1" stop-color="#B8D2E5"></stop></linearGradient>
        <linearGradient id="recommender-Illustrations_svg__paint8_linear_18166_43490" x1="142.682" y1="161.808" x2="142.682" y2="175.109" gradientUnits="userSpaceOnUse"><stop stop-color="#F28907"></stop><stop offset="1" stop-color="#E05A0C"></stop></linearGradient>
        <linearGradient id="recommender-Illustrations_svg__paint9_linear_18166_43490" x1="108.861" y1="182.34" x2="146.288" y2="182.34" gradientUnits="userSpaceOnUse"><stop stop-color="#fff"></stop><stop offset="1" stop-color="#B8D2E5"></stop></linearGradient>
        <linearGradient id="recommender-Illustrations_svg__paint10_linear_18166_43490" x1="73.6641" y1="204.808" x2="183.564" y2="204.808" gradientUnits="userSpaceOnUse"><stop stop-color="#001244"></stop><stop offset="1" stop-color="currentColor"></stop></linearGradient>
        <linearGradient id="recommender-Illustrations_svg__paint11_linear_18166_43490" x1="115.891" y1="198.235" x2="153.317" y2="198.235" gradientUnits="userSpaceOnUse"><stop stop-color="#001244"></stop><stop offset="1" stop-color="currentColor"></stop></linearGradient>
        <linearGradient id="recommender-Illustrations_svg__paint12_linear_18166_43490" x1="108.861" y1="182.333" x2="146.288" y2="182.333" gradientUnits="userSpaceOnUse"><stop stop-color="#001244"></stop><stop offset="1" stop-color="currentColor"></stop></linearGradient>
        <linearGradient id="recommender-Illustrations_svg__paint13_linear_18166_43490" x1="159.68" y1="63.2845" x2="164.566" y2="132.176" gradientUnits="userSpaceOnUse"><stop stop-color="#F28907"></stop><stop offset="1" stop-color="#E05A0C"></stop></linearGradient>
        <linearGradient id="recommender-Illustrations_svg__paint14_linear_18166_43490" x1="164.676" y1="87.2314" x2="134.911" y2="112.819" gradientUnits="userSpaceOnUse"><stop stop-color="#001244"></stop><stop offset="1" stop-color="currentColor"></stop></linearGradient>
        <linearGradient id="recommender-Illustrations_svg__paint15_linear_18166_43490" x1="157.252" y1="24.209" x2="173.967" y2="263.245" gradientUnits="userSpaceOnUse"><stop stop-color="#fff"></stop><stop offset="1" stop-color="#B8D2E5"></stop></linearGradient>
        <linearGradient id="recommender-Illustrations_svg__paint16_linear_18166_43490" x1="-10.0899" y1="1.83205" x2="-9.19816" y2="8.47731" gradientUnits="userSpaceOnUse"><stop stop-color="#90BCDC"></stop><stop offset="1" stop-color="#277BAB"></stop></linearGradient>
        <linearGradient id="recommender-Illustrations_svg__paint17_linear_18166_43490" x1="-10.0899" y1="1.83205" x2="-9.19816" y2="8.47731" gradientUnits="userSpaceOnUse"><stop stop-color="#90BCDC"></stop><stop offset="1" stop-color="#277BAB"></stop></linearGradient>
        <linearGradient id="recommender-Illustrations_svg__paint18_linear_18166_43490" x1="-10.0899" y1="1.83205" x2="-9.19816" y2="8.47731" gradientUnits="userSpaceOnUse"><stop stop-color="#90BCDC"></stop><stop offset="1" stop-color="#277BAB"></stop></linearGradient>
        <linearGradient id="recommender-Illustrations_svg__paint19_linear_18166_43490" x1="-10.0899" y1="1.83205" x2="-9.19816" y2="8.47731" gradientUnits="userSpaceOnUse"><stop stop-color="#90BCDC"></stop><stop offset="1" stop-color="#277BAB"></stop></linearGradient>
        <linearGradient id="recommender-Illustrations_svg__paint20_linear_18166_43490" x1="-10.0899" y1="1.83205" x2="-9.19816" y2="8.47731" gradientUnits="userSpaceOnUse"><stop stop-color="#90BCDC"></stop><stop offset="1" stop-color="#277BAB"></stop></linearGradient>
        <linearGradient id="recommender-Illustrations_svg__paint21_linear_18166_43490" x1="-10.0899" y1="1.83205" x2="-9.19816" y2="8.47731" gradientUnits="userSpaceOnUse"><stop stop-color="#90BCDC"></stop><stop offset="1" stop-color="#277BAB"></stop></linearGradient>
        <linearGradient id="recommender-Illustrations_svg__paint22_linear_18166_43490" x1="-0.749157" y1="19.6769" x2="18.3169" y2="17.5143" gradientUnits="userSpaceOnUse"><stop stop-color="#F28907"></stop><stop offset="1" stop-color="#FDD017"></stop></linearGradient>
        <linearGradient id="recommender-Illustrations_svg__paint23_linear_18166_43490" x1="80.4047" y1="63.2907" x2="75.5186" y2="132.182" gradientUnits="userSpaceOnUse"><stop stop-color="#F28907"></stop><stop offset="1" stop-color="#E05A0C"></stop></linearGradient>
        <linearGradient id="recommender-Illustrations_svg__paint24_linear_18166_43490" x1="75.834" y1="87.3841" x2="105.589" y2="112.82" gradientUnits="userSpaceOnUse"><stop stop-color="#001244"></stop><stop offset="1" stop-color="currentColor"></stop></linearGradient>
        <linearGradient id="recommender-Illustrations_svg__paint25_linear_18166_43490" x1="83.0903" y1="24.209" x2="66.3752" y2="263.245" gradientUnits="userSpaceOnUse"><stop stop-color="#fff"></stop><stop offset="1" stop-color="#B8D2E5"></stop></linearGradient>
        <linearGradient id="recommender-Illustrations_svg__paint26_linear_18166_43490" x1="-10.0899" y1="1.83205" x2="-9.19816" y2="8.47731" gradientUnits="userSpaceOnUse"><stop stop-color="#90BCDC"></stop><stop offset="1" stop-color="#277BAB"></stop></linearGradient>
        <linearGradient id="recommender-Illustrations_svg__paint27_linear_18166_43490" x1="-10.0899" y1="1.83205" x2="-9.19816" y2="8.47731" gradientUnits="userSpaceOnUse"><stop stop-color="#90BCDC"></stop><stop offset="1" stop-color="#277BAB"></stop></linearGradient>
        <linearGradient id="recommender-Illustrations_svg__paint28_linear_18166_43490" x1="-10.0899" y1="1.83205" x2="-9.19816" y2="8.47731" gradientUnits="userSpaceOnUse"><stop stop-color="#90BCDC"></stop><stop offset="1" stop-color="#277BAB"></stop></linearGradient>
        <linearGradient id="recommender-Illustrations_svg__paint29_linear_18166_43490" x1="-10.0899" y1="1.83205" x2="-9.19816" y2="8.47731" gradientUnits="userSpaceOnUse"><stop stop-color="#90BCDC"></stop><stop offset="1" stop-color="#277BAB"></stop></linearGradient>
        <linearGradient id="recommender-Illustrations_svg__paint30_linear_18166_43490" x1="-4.95646" y1="1.83205" x2="-3.2367" y2="8.12717" gradientUnits="userSpaceOnUse"><stop stop-color="#90BCDC"></stop><stop offset="1" stop-color="#277BAB"></stop></linearGradient>
        <linearGradient id="recommender-Illustrations_svg__paint31_linear_18166_43490" x1="-4.95646" y1="1.83205" x2="-3.2367" y2="8.12717" gradientUnits="userSpaceOnUse"><stop stop-color="#90BCDC"></stop><stop offset="1" stop-color="#277BAB"></stop></linearGradient>
        <linearGradient id="recommender-Illustrations_svg__paint32_linear_18166_43490" x1="-4.95646" y1="1.83205" x2="-3.2367" y2="8.12717" gradientUnits="userSpaceOnUse"><stop stop-color="#90BCDC"></stop><stop offset="1" stop-color="#277BAB"></stop></linearGradient>
        <linearGradient id="recommender-Illustrations_svg__paint33_linear_18166_43490" x1="-4.95646" y1="1.83205" x2="-3.2367" y2="8.12717" gradientUnits="userSpaceOnUse"><stop stop-color="#90BCDC"></stop><stop offset="1" stop-color="#277BAB"></stop></linearGradient>
        <linearGradient id="recommender-Illustrations_svg__paint34_linear_18166_43490" x1="52.1174" y1="121.286" x2="52.1174" y2="152.615" gradientUnits="userSpaceOnUse"><stop stop-color="#FEDE5D"></stop><stop offset="1" stop-color="#FFF0B5"></stop></linearGradient>
        <linearGradient id="recommender-Illustrations_svg__paint35_linear_18166_43490" x1="38.4205" y1="154.323" x2="69.0168" y2="150.82" gradientUnits="userSpaceOnUse"><stop stop-color="#3D82F2"></stop><stop offset="1" stop-color="#7F54E8"></stop></linearGradient>
        <linearGradient id="recommender-Illustrations_svg__paint36_linear_18166_43490" x1="46.7524" y1="142.374" x2="67.4633" y2="139.412" gradientUnits="userSpaceOnUse"><stop stop-color="#3D82F2"></stop><stop offset="1" stop-color="#7F54E8"></stop></linearGradient>
    </defs>
</svg>