<svg fill="none" xmlns="http://www.w3.org/2000/svg" viewBox="0 0 240 240" style="width: 240px; height: 240px;">
    <mask id="review-Illustrations_svg__mask0_18156_1651" style="mask-type: luminance;" maskUnits="userSpaceOnUse" x="5" y="24" width="230" height="192">
        <path d="M173.649 82.4071C156.681 82.1637 142.744 68.2299 118.85 42.3614C94.9563 16.4928 46.2089 16.9899 50.4363 52.0608C54.6638 87.1317 59.6386 97.8288 25.3152 106.784C-9.00825 115.74 2.95407 175.435 48.8318 195.334C94.7095 215.233 183.177 224.436 214.188 205.277C245.2 186.118 235.994 159.464 217.339 146.179C198.684 132.893 228.945 123.941 226.291 109.236C223.397 93.1865 208.384 82.9042 173.649 82.4071Z" fill="#fff"></path>
    </mask>
    <g mask="url(#review-Illustrations_svg__mask0_18156_1651)">
        <path d="M240.002 19.2002H-1.49268V228.439H240.002V19.2002Z" fill="url(#review-Illustrations_svg__paint0_linear_18156_1651)"></path>
        <path d="M0.344727 143.74C0.344727 143.74 14.7927 129.984 29.5767 141.984C44.3607 153.984 67.7093 185.75 88.4521 179.65C109.195 173.551 39.2076 205.656 39.2076 205.656L0.344727 143.74Z" fill="url(#review-Illustrations_svg__paint1_linear_18156_1651)"></path>
        <path opacity="0.6" d="M262.538 91.7066C262.538 91.7066 204.619 77.9101 191.436 112.261C178.253 146.612 98.7001 202.724 79.2429 183.661C59.7858 164.598 14.7446 205.727 14.7446 205.727V257.183H185.577C185.577 257.183 226.109 224.427 207.996 190.22C189.883 156.013 229.778 115.844 262.551 139.381L262.538 91.7066Z" fill="url(#review-Illustrations_svg__paint2_linear_18156_1651)" style="mix-blend-mode: screen;"></path>
        <path opacity="0.6" d="M112.733 46.0421C112.733 46.0421 63.5609 45.7643 55.1334 78.8672C46.706 111.97 -69.166 122.616 -69.166 122.616V148.927C-69.166 148.927 12.5814 108.233 81.3483 132.298C150.115 156.363 234.763 122.201 234.763 122.201V46.0421H112.733ZM160.716 97.4706C134.659 97.4706 113.546 89.3449 113.546 79.3266C113.546 69.3083 134.666 61.1792 160.716 61.1792C186.767 61.1792 207.883 69.3049 207.883 79.3266C207.883 89.3484 186.767 97.4844 160.716 97.4844V97.4706Z" fill="url(#review-Illustrations_svg__paint3_linear_18156_1651)" style="mix-blend-mode: screen;"></path>
    </g>
    <path d="M23.7041 17.0504C23.7041 13.3033 26.7417 10.2656 30.4888 10.2656H121.864C125.611 10.2656 128.649 13.3033 128.649 17.0504V154.726C128.649 158.473 125.611 161.51 121.864 161.51H30.4889C26.7417 161.51 23.7041 158.473 23.7041 154.726L23.7041 17.0504Z" fill="url(#review-Illustrations_svg__paint4_linear_18156_1651)"></path>
    <rect x="37.7979" y="26.0234" width="76.7582" height="5.71762" rx="2.85881" fill="url(#review-Illustrations_svg__paint5_linear_18156_1651)" fill-opacity="0.3"></rect>
    <path d="M37.7983 42.8539C37.7983 41.2751 39.0783 39.9951 40.6572 39.9951H91.5946C93.1734 39.9951 94.4534 41.2751 94.4534 42.8539C94.4534 44.4328 93.1734 45.7127 91.5946 45.7127H40.6572C39.0783 45.7127 37.7983 44.4328 37.7983 42.8539Z" fill="url(#review-Illustrations_svg__paint6_linear_18156_1651)" fill-opacity="0.3"></path>
    <path d="M37.7964 56.8222C37.7964 55.2433 39.0763 53.9634 40.6552 53.9634H91.5926C93.1715 53.9634 94.4514 55.2433 94.4514 56.8222C94.4514 58.4011 93.1715 59.681 91.5926 59.681H40.6552C39.0763 59.681 37.7964 58.4011 37.7964 56.8222Z" fill="url(#review-Illustrations_svg__paint7_linear_18156_1651)" fill-opacity="0.3"></path>
    <rect x="37.7979" y="67.9409" width="76.7582" height="5.71762" rx="2.85881" fill="url(#review-Illustrations_svg__paint8_linear_18156_1651)" fill-opacity="0.3"></rect>
    <rect x="37.7969" y="81.9062" width="37.7058" height="5.71762" rx="2.85881" fill="url(#review-Illustrations_svg__paint9_linear_18156_1651)" fill-opacity="0.3"></rect>
    <rect x="37.7969" y="95.8806" width="37.7058" height="5.71762" rx="2.85881" fill="url(#review-Illustrations_svg__paint10_linear_18156_1651)" fill-opacity="0.3"></rect>
    <rect x="37.7964" y="109.849" width="37.7058" height="5.71762" rx="2.85881" fill="url(#review-Illustrations_svg__paint11_linear_18156_1651)" fill-opacity="0.3"></rect>
    <circle cx="48.575" cy="138.979" r="10.0892" fill="url(#review-Illustrations_svg__paint12_linear_18156_1651)"></circle>
    <path d="M208.438 83.2845C204.98 89.8064 199.212 94.8016 192.262 97.291C185.313 99.7804 177.684 99.5844 170.872 96.7415C164.06 93.8985 158.555 88.6136 155.437 81.9228C152.318 75.232 151.812 67.6178 154.016 60.5728L151.561 68.4298C150.551 71.6396 150.103 74.9994 150.235 78.3616C150.493 84.8602 152.882 91.0932 157.033 96.0998C161.184 101.106 166.867 104.609 173.205 106.066C179.544 107.524 186.185 106.856 192.107 104.165C198.028 101.475 202.899 96.9113 205.971 91.1784C206.818 89.579 207.521 87.9067 208.07 86.1818L210.525 78.3125C209.983 80.0302 209.284 81.6945 208.438 83.2845Z" fill="url(#review-Illustrations_svg__paint13_linear_18156_1651)"></path>
    <path d="M181.221 39.8992C187.059 39.6992 192.826 41.2342 197.792 44.3102C202.759 47.3862 206.702 51.8652 209.124 57.1814C211.546 62.4975 212.337 68.4123 211.399 74.1782C210.461 79.9442 207.834 85.3026 203.852 89.5765C199.869 93.8505 194.709 96.8481 189.024 98.1906C183.339 99.5332 177.383 99.1604 171.909 97.1195C166.435 95.0786 161.69 91.4611 158.271 86.724C154.852 81.9869 152.915 76.3428 152.702 70.5048C152.434 62.6667 155.286 55.0421 160.633 49.3042C165.979 43.5664 173.383 40.184 181.221 39.8992Z" fill="url(#review-Illustrations_svg__paint14_linear_18156_1651)"></path>
    <path d="M218.112 61.3091L215.644 69.1661L186.07 70.2342L188.538 62.3772L218.112 61.3091Z" fill="url(#review-Illustrations_svg__paint15_linear_18156_1651)"></path>
    <path d="M188.538 62.3652L186.071 70.2223L184.978 40.6847L187.458 32.8276L188.538 62.3652Z" fill="url(#review-Illustrations_svg__paint16_linear_18156_1651)"></path>
    <path d="M187.445 32.835C195.29 32.5429 202.929 35.3778 208.685 40.7163C214.44 46.0549 217.84 53.4601 218.137 61.3045L188.562 62.3726L187.445 32.835Z" fill="url(#review-Illustrations_svg__paint17_linear_18156_1651)"></path>
    <path d="M184.136 135.811H170.753V179.002H184.136V135.811Z" fill="url(#review-Illustrations_svg__paint18_linear_18156_1651)"></path>
    <path d="M149.878 155.614H136.498V178.997H149.878V155.614Z" fill="url(#review-Illustrations_svg__paint19_linear_18156_1651)"></path>
    <path d="M201.264 127.075H187.881V179.001H201.264V127.075Z" fill="url(#review-Illustrations_svg__paint20_linear_18156_1651)"></path>
    <path d="M167.005 143.983H153.624V179H167.005V143.983Z" fill="url(#review-Illustrations_svg__paint21_linear_18156_1651)"></path>
    <path d="M218.392 115.175H205.012V178.998H218.392V115.175Z" fill="url(#review-Illustrations_svg__paint22_linear_18156_1651)"></path>
    <defs>
        <linearGradient id="review-Illustrations_svg__paint0_linear_18156_1651" x1="-13.1148" y1="283.686" x2="281.426" y2="245.128" gradientUnits="userSpaceOnUse"><stop stop-color="#3D82F2"></stop><stop offset="1" stop-color="#7F54E8"></stop></linearGradient>
        <linearGradient id="review-Illustrations_svg__paint1_linear_18156_1651" x1="38.0179" y1="193.769" x2="54.3927" y2="129.881" gradientUnits="userSpaceOnUse"><stop stop-color="#fff" stop-opacity="0"></stop><stop offset="1" stop-color="#fff" stop-opacity="0.5"></stop></linearGradient>
        <linearGradient id="review-Illustrations_svg__paint2_linear_18156_1651" x1="161.319" y1="189.085" x2="292.497" y2="99.9592" gradientUnits="userSpaceOnUse"><stop stop-color="#fff" stop-opacity="0"></stop><stop offset="1" stop-color="#fff" stop-opacity="0.5"></stop></linearGradient>
        <linearGradient id="review-Illustrations_svg__paint3_linear_18156_1651" x1="134.436" y1="49.2958" x2="56.6831" y2="159.384" gradientUnits="userSpaceOnUse"><stop stop-color="#fff" stop-opacity="0"></stop><stop offset="1" stop-color="#fff" stop-opacity="0.5"></stop></linearGradient>
        <linearGradient id="review-Illustrations_svg__paint4_linear_18156_1651" x1="76.1765" y1="-2.87614" x2="76.1765" y2="337.777" gradientUnits="userSpaceOnUse"><stop stop-color="#fff"></stop><stop offset="1" stop-color="#B8D2E5"></stop></linearGradient>
        <linearGradient id="review-Illustrations_svg__paint5_linear_18156_1651" x1="23.4885" y1="28.6216" x2="24.7532" y2="38.0458" gradientUnits="userSpaceOnUse"><stop stop-color="#90BCDC"></stop><stop offset="1" stop-color="#277BAB"></stop></linearGradient>
        <linearGradient id="review-Illustrations_svg__paint6_linear_18156_1651" x1="23.489" y1="42.5933" x2="24.7537" y2="52.0174" gradientUnits="userSpaceOnUse"><stop stop-color="#90BCDC"></stop><stop offset="1" stop-color="#277BAB"></stop></linearGradient>
        <linearGradient id="review-Illustrations_svg__paint7_linear_18156_1651" x1="23.4871" y1="56.5615" x2="24.7518" y2="65.9857" gradientUnits="userSpaceOnUse"><stop stop-color="#90BCDC"></stop><stop offset="1" stop-color="#277BAB"></stop></linearGradient>
        <linearGradient id="review-Illustrations_svg__paint8_linear_18156_1651" x1="23.4885" y1="70.5391" x2="24.7532" y2="79.9632" gradientUnits="userSpaceOnUse"><stop stop-color="#90BCDC"></stop><stop offset="1" stop-color="#277BAB"></stop></linearGradient>
        <linearGradient id="review-Illustrations_svg__paint9_linear_18156_1651" x1="30.7677" y1="84.5044" x2="33.2067" y2="93.432" gradientUnits="userSpaceOnUse"><stop stop-color="#90BCDC"></stop><stop offset="1" stop-color="#277BAB"></stop></linearGradient>
        <linearGradient id="review-Illustrations_svg__paint10_linear_18156_1651" x1="30.7677" y1="98.4788" x2="33.2067" y2="107.406" gradientUnits="userSpaceOnUse"><stop stop-color="#90BCDC"></stop><stop offset="1" stop-color="#277BAB"></stop></linearGradient>
        <linearGradient id="review-Illustrations_svg__paint11_linear_18156_1651" x1="30.7672" y1="112.447" x2="33.2062" y2="121.375" gradientUnits="userSpaceOnUse"><stop stop-color="#90BCDC"></stop><stop offset="1" stop-color="#277BAB"></stop></linearGradient>
        <linearGradient id="review-Illustrations_svg__paint12_linear_18156_1651" x1="48.5744" y1="134.481" x2="48.5744" y2="146.845" gradientUnits="userSpaceOnUse"><stop stop-color="#FFA535"></stop><stop offset="1" stop-color="#FF6105"></stop></linearGradient>
        <linearGradient id="review-Illustrations_svg__paint13_linear_18156_1651" x1="161.308" y1="83.5792" x2="227.86" y2="85.0892" gradientUnits="userSpaceOnUse"><stop stop-color="#E1ECF4"></stop><stop offset="1" stop-color="#277BAB"></stop></linearGradient>
        <linearGradient id="review-Illustrations_svg__paint14_linear_18156_1651" x1="175.083" y1="79.921" x2="224.496" y2="7.82038" gradientUnits="userSpaceOnUse"><stop stop-color="#E1ECF4"></stop><stop offset="1" stop-color="#277BAB"></stop></linearGradient>
        <linearGradient id="review-Illustrations_svg__paint15_linear_18156_1651" x1="202.09" y1="63.7824" x2="202.09" y2="69.2509" gradientUnits="userSpaceOnUse"><stop stop-color="#F28907"></stop><stop offset="1" stop-color="#E05A0C"></stop></linearGradient>
        <linearGradient id="review-Illustrations_svg__paint16_linear_18156_1651" x1="186.758" y1="43.1904" x2="186.758" y2="66.1023" gradientUnits="userSpaceOnUse"><stop stop-color="#F28907"></stop><stop offset="1" stop-color="#E05A0C"></stop></linearGradient>
        <linearGradient id="review-Illustrations_svg__paint17_linear_18156_1651" x1="202.79" y1="41.0056" x2="202.79" y2="59.116" gradientUnits="userSpaceOnUse"><stop stop-color="#F28907"></stop><stop offset="1" stop-color="#E05A0C"></stop></linearGradient>
        <linearGradient id="review-Illustrations_svg__paint18_linear_18156_1651" x1="177.445" y1="143.275" x2="177.445" y2="174.598" gradientUnits="userSpaceOnUse"><stop stop-color="#FEDE5D"></stop><stop offset="1" stop-color="#FFF0B5"></stop></linearGradient>
        <linearGradient id="review-Illustrations_svg__paint19_linear_18156_1651" x1="143.189" y1="159.655" x2="143.189" y2="176.612" gradientUnits="userSpaceOnUse"><stop stop-color="#FEDE5D"></stop><stop offset="1" stop-color="#FFF0B5"></stop></linearGradient>
        <linearGradient id="review-Illustrations_svg__paint20_linear_18156_1651" x1="194.574" y1="136.049" x2="194.574" y2="173.706" gradientUnits="userSpaceOnUse"><stop stop-color="#FEDE5D"></stop><stop offset="1" stop-color="#FFF0B5"></stop></linearGradient>
        <linearGradient id="review-Illustrations_svg__paint21_linear_18156_1651" x1="160.315" y1="150.035" x2="160.315" y2="175.43" gradientUnits="userSpaceOnUse"><stop stop-color="#FEDE5D"></stop><stop offset="1" stop-color="#FFF0B5"></stop></linearGradient>
        <linearGradient id="review-Illustrations_svg__paint22_linear_18156_1651" x1="211.703" y1="126.205" x2="211.703" y2="172.49" gradientUnits="userSpaceOnUse"><stop stop-color="#FEDE5D"></stop><stop offset="1" stop-color="#FFF0B5"></stop></linearGradient>
    </defs>
</svg>