<svg fill="none" xmlns="http://www.w3.org/2000/svg" viewBox="0 0 24 25" style="height: 24px; width: 24px; margin: 0px;" class="MuiChip-avatar MuiChip-avatarSmall MuiChip-avatarColorDefault"><path d="M0 12.3984C0 5.77102 5.37258 0.398438 12 0.398438C18.6274 0.398438 24 5.77102 24 12.3984C24 19.0259 18.6274 24.3984 12 24.3984C5.37258 24.3984 0 19.0259 0 12.3984Z" fill="#fff"></path><path fill-rule="evenodd" clip-rule="evenodd" d="M6.64051 5.64563H8.24832C11.9778 5.64563 15.0011 8.66897 15.0011 12.3984V14.906C15.0011 15.1787 14.7801 15.3997 14.5074 15.3997H11.9999C8.27041 15.3997 5.24707 12.3764 5.24707 8.64688V7.03907C5.24707 6.6695 5.39388 6.31508 5.6552 6.05376C5.91652 5.79244 6.27094 5.64563 6.64051 5.64563Z" stroke="#1F97D4" stroke-linecap="round" stroke-linejoin="round"></path><path d="M7.60398 7.99732C7.57931 7.99742 7.55938 8.01748 7.55945 8.04215C7.55951 8.06682 7.57955 8.08677 7.60422 8.08674C7.62889 8.08671 7.64887 8.0667 7.64887 8.04203C7.64894 8.03012 7.64422 8.01868 7.63579 8.01027C7.62735 8.00187 7.61589 7.9972 7.60398 7.99732" stroke="#1F97D4" stroke-linecap="round" stroke-linejoin="round"></path><path d="M10.124 8.26648V8.26648C10.124 9.50964 9.11621 10.5174 7.87305 10.5174V10.5174" stroke="#1F97D4" stroke-linecap="round" stroke-linejoin="round"></path><path d="M12.2144 6.94147H14.5293C14.8509 6.94147 15.1594 7.06923 15.3868 7.29664V7.29664C15.6142 7.52404 15.742 7.83248 15.742 8.15408C15.742 8.47569 15.6142 8.78413 15.3868 9.01153L14.5127 9.8856" stroke="#1F97D4" stroke-linecap="round" stroke-linejoin="round"></path><path d="M6.54297 12.613V14.928C6.54297 15.2496 6.67073 15.558 6.89814 15.7854V15.7854C7.12555 16.0128 7.43398 16.1406 7.75559 16.1406C8.07719 16.1406 8.38563 16.0128 8.61304 15.7854L9.4871 14.9113" stroke="#1F97D4" stroke-linecap="round" stroke-linejoin="round"></path><path fill-rule="evenodd" clip-rule="evenodd" d="M16.6589 17.0573H17.0678C17.6998 17.0573 18.3059 16.8063 18.7528 16.3594C18.3541 15.1631 17.127 14.451 15.8905 14.6983C15.0878 14.8588 14.4604 15.4863 14.2999 16.289C14.0526 17.5254 14.7647 18.7525 15.9609 19.1513C16.4078 18.7044 16.6589 18.0982 16.6589 17.4662L16.6589 17.0573Z" stroke="#1F97D4" stroke-linecap="round" stroke-linejoin="round"></path></svg>