<svg fill="none" xmlns="http://www.w3.org/2000/svg" viewBox="0 0 24 25" style="height: 24px; width: 24px; margin: 0px;" class="MuiChip-avatar MuiChip-avatarSmall MuiChip-avatarColorDefault">
    <path d="M0 12.3984C0 5.77102 5.37258 0.398438 12 0.398438C18.6274 0.398438 24 5.77102 24 12.3984C24 19.0259 18.6274 24.3984 12 24.3984C5.37258 24.3984 0 19.0259 0 12.3984Z" fill="#fff"></path>
    <path d="M18.75 19.1484L19.1835 18.2814C19.3917 17.865 19.5001 17.4058 19.5 16.9402V12.0234C19.5 11.4021 18.9963 10.8984 18.375 10.8984V10.8984C17.7537 10.8984 17.25 11.4021 17.25 12.0234V15.0234" stroke="#26C0E6" stroke-linecap="round" stroke-linejoin="round"></path>
    <path d="M13.5 19.1484V16.9634C13.5 16.6389 13.6053 16.3231 13.8 16.0634L15.0585 14.3855C15.2702 14.1031 15.5941 13.9266 15.9462 13.9015C16.2982 13.8765 16.6438 14.0055 16.8934 14.2551V14.2551C17.3218 14.6835 17.37 15.3618 17.0065 15.8465L16.2175 16.8984" stroke="#26C0E6" stroke-linecap="round" stroke-linejoin="round"></path>
    <path d="M5.25 19.1484L4.8165 18.2814C4.60829 17.865 4.49993 17.4058 4.5 16.9402V12.0234C4.5 11.4021 5.00368 10.8984 5.625 10.8984V10.8984C6.24632 10.8984 6.75 11.4021 6.75 12.0234V15.0234" stroke="#26C0E6" stroke-linecap="round" stroke-linejoin="round"></path>
    <path d="M10.5 19.1484V16.9634C10.5 16.6389 10.3947 16.3231 10.2 16.0634L8.94154 14.3855C8.72977 14.1031 8.4059 13.9266 8.05384 13.9015C7.70178 13.8765 7.35619 14.0055 7.10661 14.2551V14.2551C6.67818 14.6835 6.62998 15.3618 6.99352 15.8465L7.78248 16.8984" stroke="#26C0E6" stroke-linecap="round" stroke-linejoin="round"></path>
    <path fill-rule="evenodd" clip-rule="evenodd" d="M10.0954 10.7826V10.7826C9.25988 9.82518 9.25988 8.39784 10.0954 7.44041L11.4349 5.90532C11.5773 5.7421 11.7834 5.64844 12 5.64844C12.2166 5.64844 12.4227 5.7421 12.5651 5.90532L13.9047 7.4404C14.7401 8.39783 14.7401 9.82517 13.9047 10.7826V10.7826C13.4246 11.3327 12.7301 11.6484 12 11.6484C11.2699 11.6484 10.5754 11.3327 10.0954 10.7826V10.7826Z" stroke="#26C0E6" stroke-linecap="round" stroke-linejoin="round"></path>
</svg>